<?xml version="1.0" standalone="no"?>
<!DOCTYPE svg PUBLIC "-//W3C//DTD SVG 20010904//EN"
 "http://www.w3.org/TR/2001/REC-SVG-20010904/DTD/svg10.dtd">
<svg version="1.0" xmlns="http://www.w3.org/2000/svg"
 width="666.000000pt" height="375.000000pt" viewBox="0 0 666.000000 375.000000"
 preserveAspectRatio="xMidYMid meet">

<defs>
    <linearGradient id="purpleToWhite" x1="0%" y1="0%" x2="0%" y2="100%">
        <stop offset="100%" style="stop-color:#8B3EFF"/> <!-- loArk 보라색 시작 -->
        <stop offset="0%" style="stop-color:#000000"/> <!-- 흰색 끝 -->
    </linearGradient>
</defs>

<g transform="translate(0.000000,375.000000) scale(0.100000,-0.100000)"
fill="url(#purpleToWhite)" stroke="none">
<path d="M1348 2103 c-5 -584 -4 -602 19 -654 24 -54 83 -114 127 -128 17 -6
49 -11 71 -13 l40 -3 3 578 2 577 -130 0 -130 0 -2 -357z"/>
<path d="M3145 2448 c-2 -7 -21 -62 -43 -123 -23 -60 -89 -243 -147 -405 -59
-162 -131 -361 -161 -442 -30 -81 -54 -152 -54 -158 0 -6 46 -10 130 -10 151
0 133 -14 184 142 l34 103 204 0 203 0 27 -80 c15 -44 35 -99 44 -122 l16 -43
129 0 c71 0 129 4 129 8 0 10 -54 167 -110 322 -23 63 -50 140 -60 170 -10 30
-66 187 -124 348 -58 162 -106 296 -106 298 0 2 -65 4 -145 4 -108 0 -147 -3
-150 -12z m222 -493 c35 -104 63 -193 63 -197 0 -4 -61 -8 -135 -8 -93 0 -135
3 -135 11 0 30 124 389 134 386 5 -2 38 -88 73 -192z"/>
<path d="M4615 2448 c-3 -7 -4 -265 -3 -573 l3 -560 127 -3 128 -3 2 198 3
198 68 -90 c38 -49 105 -138 150 -197 l81 -108 138 0 c76 0 138 3 138 6 0 3
-22 34 -49 68 -26 33 -101 130 -165 215 l-116 153 32 42 c18 22 68 84 113 136
179 212 176 208 159 214 -26 10 -254 7 -274 -4 -10 -5 -74 -77 -141 -160 -67
-82 -126 -150 -131 -150 -4 0 -8 142 -8 315 l0 315 -125 0 c-91 0 -127 -3
-130 -12z"/>
<path d="M2120 2197 c-288 -82 -430 -394 -301 -660 11 -23 43 -68 71 -99 93
-105 201 -152 350 -152 144 0 256 48 346 146 86 93 124 192 124 320 0 181
-100 336 -266 415 -70 33 -86 37 -178 40 -62 2 -118 -2 -146 -10z m223 -231
c49 -24 104 -80 122 -124 8 -19 15 -63 15 -99 0 -79 -22 -125 -84 -180 -198
-174 -486 61 -365 298 22 44 83 98 130 116 45 17 135 11 182 -11z"/>
<path d="M4305 2146 c-27 -12 -64 -35 -81 -49 -41 -34 -47 -34 -42 3 3 17 -1
35 -8 41 -7 5 -57 9 -120 7 l-109 -3 -3 -418 -2 -418 122 3 123 3 5 262 5 261
31 38 c46 57 92 77 180 76 l74 0 0 109 0 109 -62 0 c-45 0 -77 -7 -113 -24z"/>
</g>
</svg>
